<svg width="25" height="25" viewBox="0 0 25 25" fill="none" xmlns="http://www.w3.org/2000/svg">
<g clip-path="url(#clip0_2967_1254)">
<path d="M24.0994 22.8729L18.1304 16.9039C19.757 14.9145 20.5567 12.376 20.3642 9.81342C20.1717 7.25089 19.0016 4.86039 17.0959 3.13638C15.1903 1.41237 12.695 0.486752 10.126 0.550984C7.55705 0.615216 5.11106 1.66438 3.29397 3.48147C1.47688 5.29856 0.427716 7.74455 0.363484 10.3135C0.299252 12.8825 1.22487 15.3778 2.94888 17.2834C4.67289 19.1891 7.06339 20.3592 9.62592 20.5517C12.1885 20.7442 14.727 19.9445 16.7164 18.3179L22.6854 24.2869C22.874 24.469 23.1266 24.5698 23.3888 24.5675C23.651 24.5653 23.9018 24.4601 24.0872 24.2747C24.2726 24.0893 24.3778 23.8385 24.38 23.5763C24.3823 23.3141 24.2815 23.0615 24.0994 22.8729ZM10.3924 18.5799C8.81011 18.5799 7.26339 18.1107 5.9478 17.2316C4.63221 16.3526 3.60682 15.1031 3.00132 13.6413C2.39582 12.1795 2.2374 10.571 2.54608 9.01914C2.85476 7.46729 3.61669 6.04183 4.73551 4.92301C5.85433 3.80419 7.27979 3.04226 8.83164 2.73358C10.3835 2.4249 11.992 2.58332 13.4538 3.18882C14.9156 3.79432 16.1651 4.81971 17.0441 6.1353C17.9232 7.45089 18.3924 8.99761 18.3924 10.5799C18.39 12.7009 17.5464 14.7343 16.0466 16.2341C14.5468 17.7339 12.5134 18.5775 10.3924 18.5799Z" fill="#222222"/>
</g>
<defs>
<clipPath id="clip0_2967_1254">
<rect width="24" height="24" fill="white" transform="translate(0.392578 0.579102)"/>
</clipPath>
</defs>
</svg>
