<svg width="24" height="25" viewBox="0 0 24 25" fill="none" xmlns="http://www.w3.org/2000/svg">
<g clip-path="url(#clip0_2967_1260)">
<path d="M12 0.799805C9.62663 0.799805 7.30655 1.50359 5.33316 2.82217C3.35977 4.14075 1.8217 6.01489 0.913451 8.2076C0.00519943 10.4003 -0.232441 12.8131 0.230582 15.1409C0.693605 17.4687 1.83649 19.6069 3.51472 21.2851C5.19295 22.9633 7.33115 24.1062 9.65892 24.5692C11.9867 25.0323 14.3995 24.7946 16.5922 23.8864C18.7849 22.9781 20.6591 21.44 21.9776 19.4667C23.2962 17.4933 24 15.1732 24 12.7998C23.9966 9.61826 22.7312 6.56802 20.4815 4.31832C18.2318 2.06863 15.1815 0.803246 12 0.799805V0.799805ZM20.647 7.79981H17.426C16.705 6.12879 15.7556 4.56589 14.605 3.1558C17.1515 3.84873 19.3223 5.51727 20.647 7.79981ZM16.5 12.7998C16.4918 13.8179 16.3314 14.8291 16.024 15.7998H7.97601C7.66866 14.8291 7.50821 13.8179 7.50001 12.7998C7.50821 11.7817 7.66866 10.7705 7.97601 9.79981H16.024C16.3314 10.7705 16.4918 11.7817 16.5 12.7998ZM8.77801 17.7998H15.222C14.3732 19.4755 13.2882 21.0206 12 22.3878C10.7114 21.021 9.62625 19.4758 8.77801 17.7998ZM8.77801 7.79981C9.62677 6.12408 10.7119 4.57896 12 3.2118C13.2886 4.57858 14.3738 6.12376 15.222 7.79981H8.77801ZM9.40001 3.1558C8.24767 4.56559 7.29659 6.1285 6.57401 7.79981H3.35301C4.67886 5.51624 6.85166 3.84756 9.40001 3.1558ZM2.46101 9.79981H5.90001C5.64076 10.7789 5.50636 11.7869 5.50001 12.7998C5.50636 13.8127 5.64076 14.8207 5.90001 15.7998H2.46101C1.84635 13.847 1.84635 11.7526 2.46101 9.79981ZM3.35301 17.7998H6.57401C7.29659 19.4711 8.24767 21.034 9.40001 22.4438C6.85166 21.7521 4.67886 20.0834 3.35301 17.7998ZM14.605 22.4438C15.7556 21.0337 16.705 19.4708 17.426 17.7998H20.647C19.3223 20.0823 17.1515 21.7509 14.605 22.4438ZM21.539 15.7998H18.1C18.3592 14.8207 18.4936 13.8127 18.5 12.7998C18.4936 11.7869 18.3592 10.7789 18.1 9.79981H21.537C22.1517 11.7526 22.1517 13.847 21.537 15.7998H21.539Z" fill="#222222"/>
</g>
<defs>
<clipPath id="clip0_2967_1260">
<rect width="24" height="24" fill="white" transform="translate(0 0.799805)"/>
</clipPath>
</defs>
</svg>
