<svg width="25" height="25" viewBox="0 0 25 25" fill="none" xmlns="http://www.w3.org/2000/svg">
<g clip-path="url(#clip0_2967_1256)">
<path d="M23.6514 17L21.0514 7.62898C20.4962 5.6244 19.2864 3.86312 17.6147 2.62546C15.9429 1.38781 13.9052 0.744901 11.8258 0.79906C9.7465 0.85322 7.74502 1.60134 6.13995 2.92434C4.53488 4.24735 3.41846 6.06921 2.96837 8.09998L0.957371 17.15C0.860064 17.5884 0.862438 18.0431 0.964317 18.4805C1.0662 18.9179 1.26498 19.3269 1.54601 19.6772C1.82703 20.0275 2.18312 20.3103 2.58802 20.5046C2.99291 20.6989 3.43626 20.7999 3.88537 20.8H7.49237C7.72189 21.9303 8.3351 22.9465 9.22811 23.6764C10.1211 24.4063 11.239 24.805 12.3924 24.805C13.5457 24.805 14.6636 24.4063 15.5566 23.6764C16.4496 22.9465 17.0629 21.9303 17.2924 20.8H20.7624C21.2245 20.7998 21.6803 20.6928 22.0943 20.4874C22.5082 20.2821 22.8692 19.9838 23.1489 19.616C23.4286 19.2482 23.6196 18.8207 23.7069 18.367C23.7943 17.9132 23.7756 17.4454 23.6524 17H23.6514ZM12.3924 22.8C11.7741 22.7974 11.1717 22.6039 10.6677 22.2459C10.1636 21.8879 9.78245 21.3829 9.57637 20.8H15.2084C15.0023 21.3829 14.6211 21.8879 14.1171 22.2459C13.613 22.6039 13.0106 22.7974 12.3924 22.8ZM21.5574 18.405C21.4641 18.5287 21.3431 18.6288 21.2042 18.6974C21.0653 18.766 20.9123 18.8011 20.7574 18.8H3.88537C3.73563 18.8 3.58781 18.7663 3.45282 18.7015C3.31783 18.6367 3.19911 18.5424 3.10543 18.4256C3.01174 18.3088 2.94549 18.1724 2.91156 18.0266C2.87763 17.8808 2.87688 17.7291 2.90937 17.583L4.92037 8.53298C5.27472 6.93918 6.15168 5.50958 7.41183 4.47143C8.67198 3.43327 10.243 2.84615 11.8751 2.80339C13.5073 2.76063 15.1069 3.26469 16.4197 4.23545C17.7325 5.2062 18.6831 6.58792 19.1204 8.16098L21.7204 17.532C21.7628 17.6802 21.7702 17.8362 21.7419 17.9877C21.7136 18.1392 21.6504 18.2821 21.5574 18.405Z" fill="#222222"/>
</g>
<defs>
<clipPath id="clip0_2967_1256">
<rect width="24" height="24" fill="white" transform="translate(0.392578 0.799805)"/>
</clipPath>
</defs>
</svg>
