<svg width="25" height="25" viewBox="0 0 25 25" fill="none" xmlns="http://www.w3.org/2000/svg">
<g clip-path="url(#clip0_2967_1250)">
<path d="M23.1056 4.28208C22.8243 3.94452 22.4721 3.67303 22.0741 3.48689C21.6761 3.30076 21.242 3.20454 20.8026 3.20508H4.63458L4.59258 2.85408C4.50663 2.1245 4.15596 1.45181 3.60707 0.963556C3.05817 0.475301 2.34921 0.20542 1.61458 0.205078L1.39258 0.205078C1.12736 0.205078 0.873008 0.310435 0.685471 0.497971C0.497935 0.685508 0.392578 0.939862 0.392578 1.20508C0.392578 1.47029 0.497935 1.72465 0.685471 1.91218C0.873008 2.09972 1.12736 2.20508 1.39258 2.20508H1.61458C1.85951 2.20511 2.09592 2.29503 2.27895 2.45779C2.46199 2.62055 2.57892 2.84483 2.60758 3.08808L3.98358 14.7881C4.12643 16.0049 4.71106 17.1269 5.62649 17.9411C6.54192 18.7553 7.72443 19.2051 8.94958 19.2051H19.3926C19.6578 19.2051 19.9121 19.0997 20.0997 18.9122C20.2872 18.7246 20.3926 18.4703 20.3926 18.2051C20.3926 17.9399 20.2872 17.6855 20.0997 17.498C19.9121 17.3104 19.6578 17.2051 19.3926 17.2051H8.94958C8.33063 17.2033 7.72738 17.0102 7.22251 16.6521C6.71765 16.2941 6.33589 15.7886 6.12958 15.2051H18.0496C19.2219 15.2051 20.3569 14.7933 21.2564 14.0415C22.1559 13.2897 22.7626 12.2458 22.9706 11.0921L23.7556 6.73808C23.8339 6.30609 23.8163 5.86214 23.704 5.43772C23.5917 5.01329 23.3874 4.61875 23.1056 4.28208ZM21.7926 6.38308L21.0066 10.7371C20.8817 11.4301 20.517 12.0571 19.9764 12.5083C19.4358 12.9595 18.7537 13.2061 18.0496 13.2051H5.81158L4.87058 5.20508H20.8026C20.9495 5.2042 21.0948 5.2357 21.2281 5.29733C21.3615 5.35897 21.4796 5.44922 21.5741 5.56169C21.6686 5.67415 21.7372 5.80605 21.775 5.94802C21.8127 6.08998 21.8187 6.23852 21.7926 6.38308Z" fill="#222222"/>
<path d="M7.3927 24.206C8.49726 24.206 9.39269 23.3106 9.39269 22.2061C9.39269 21.1015 8.49726 20.2061 7.3927 20.2061C6.28813 20.2061 5.3927 21.1015 5.3927 22.2061C5.3927 23.3106 6.28813 24.206 7.3927 24.206Z" fill="#222222"/>
<path d="M17.3926 24.206C18.4971 24.206 19.3926 23.3106 19.3926 22.2061C19.3926 21.1015 18.4971 20.2061 17.3926 20.2061C16.288 20.2061 15.3926 21.1015 15.3926 22.2061C15.3926 23.3106 16.288 24.206 17.3926 24.206Z" fill="#222222"/>
</g>
<defs>
<clipPath id="clip0_2967_1250">
<rect width="24" height="24" fill="white" transform="translate(0.392578 0.205078)"/>
</clipPath>
</defs>
</svg>
