<svg width="17" height="17" viewBox="0 0 17 17" fill="none" xmlns="http://www.w3.org/2000/svg">
<path d="M7.18995 8.57412C7.12746 8.51215 7.07786 8.43841 7.04402 8.35717C7.01017 8.27593 6.99275 8.1888 6.99275 8.10079C6.99275 8.01278 7.01017 7.92564 7.04402 7.8444C7.07786 7.76316 7.12746 7.68943 7.18995 7.62746L10.2499 4.57412C10.3124 4.51215 10.362 4.43841 10.3959 4.35717C10.4297 4.27593 10.4471 4.1888 10.4471 4.10079C10.4471 4.01278 10.4297 3.92564 10.3959 3.8444C10.362 3.76316 10.3124 3.68943 10.2499 3.62746C10.125 3.50329 9.95607 3.43359 9.77995 3.43359C9.60382 3.43359 9.43485 3.50329 9.30995 3.62746L6.24995 6.68746C5.87541 7.06246 5.66504 7.57079 5.66504 8.10079C5.66504 8.63079 5.87541 9.13912 6.24995 9.51412L9.30995 12.5741C9.43412 12.6973 9.60172 12.7667 9.77661 12.7675C9.86435 12.768 9.95133 12.7511 10.0326 12.718C10.1138 12.6848 10.1877 12.6359 10.2499 12.5741C10.3124 12.5121 10.362 12.4384 10.3959 12.3572C10.4297 12.2759 10.4471 12.1888 10.4471 12.1008C10.4471 12.0128 10.4297 11.9256 10.3959 11.8444C10.362 11.7632 10.3124 11.6894 10.2499 11.6275L7.18995 8.57412Z" fill="#777777"/>
</svg>
