<svg width="17" height="17" viewBox="0 0 17 17" fill="none" xmlns="http://www.w3.org/2000/svg">
<g clip-path="url(#clip0_74_437)">
<path d="M14.8727 3.10466H12.8061C12.6513 2.35226 12.2419 1.67622 11.6469 1.19047C11.0518 0.704715 10.3075 0.438958 9.53939 0.437988L8.20605 0.437988C7.43792 0.438958 6.6936 0.704715 6.09855 1.19047C5.50351 1.67622 5.09412 2.35226 4.93939 3.10466H2.87272C2.69591 3.10466 2.52634 3.17489 2.40132 3.29992C2.27629 3.42494 2.20605 3.59451 2.20605 3.77132C2.20605 3.94813 2.27629 4.1177 2.40132 4.24273C2.52634 4.36775 2.69591 4.43799 2.87272 4.43799H3.53939V13.1047C3.54045 13.9884 3.89198 14.8356 4.51687 15.4605C5.14176 16.0854 5.98899 16.4369 6.87272 16.438H10.8727C11.7565 16.4369 12.6037 16.0854 13.2286 15.4605C13.8535 14.8356 14.205 13.9884 14.2061 13.1047V4.43799H14.8727C15.0495 4.43799 15.2191 4.36775 15.3441 4.24273C15.4691 4.1177 15.5394 3.94813 15.5394 3.77132C15.5394 3.59451 15.4691 3.42494 15.3441 3.29992C15.2191 3.17489 15.0495 3.10466 14.8727 3.10466ZM8.20605 1.77132H9.53939C9.9529 1.77183 10.3561 1.90024 10.6938 2.13895C11.0315 2.37766 11.287 2.71498 11.4254 3.10466H6.32005C6.45844 2.71498 6.71399 2.37766 7.05165 2.13895C7.3893 1.90024 7.79254 1.77183 8.20605 1.77132ZM12.8727 13.1047C12.8727 13.6351 12.662 14.1438 12.2869 14.5189C11.9119 14.8939 11.4032 15.1047 10.8727 15.1047H6.87272C6.34229 15.1047 5.83358 14.8939 5.45851 14.5189C5.08343 14.1438 4.87272 13.6351 4.87272 13.1047V4.43799H12.8727V13.1047Z" fill="#777777"/>
<path d="M7.53971 12.4373C7.71652 12.4373 7.88609 12.3671 8.01112 12.2421C8.13614 12.117 8.20638 11.9475 8.20638 11.7707V7.77067C8.20638 7.59386 8.13614 7.42429 8.01112 7.29927C7.88609 7.17424 7.71652 7.104 7.53971 7.104C7.3629 7.104 7.19333 7.17424 7.06831 7.29927C6.94328 7.42429 6.87305 7.59386 6.87305 7.77067V11.7707C6.87305 11.9475 6.94328 12.117 7.06831 12.2421C7.19333 12.3671 7.3629 12.4373 7.53971 12.4373Z" fill="#777777"/>
<path d="M10.2067 12.4373C10.3835 12.4373 10.5531 12.3671 10.6781 12.2421C10.8031 12.117 10.8734 11.9475 10.8734 11.7707V7.77067C10.8734 7.59386 10.8031 7.42429 10.6781 7.29927C10.5531 7.17424 10.3835 7.104 10.2067 7.104C10.0299 7.104 9.86033 7.17424 9.7353 7.29927C9.61028 7.42429 9.54004 7.59386 9.54004 7.77067V11.7707C9.54004 11.9475 9.61028 12.117 9.7353 12.2421C9.86033 12.3671 10.0299 12.4373 10.2067 12.4373Z" fill="#777777"/>
</g>
<defs>
<clipPath id="clip0_74_437">
<rect width="16" height="16" fill="white" transform="translate(0.873047 0.437988)"/>
</clipPath>
</defs>
</svg>
